<?xml version="1.0" encoding="utf-8"?>
<!-- Generator: Adobe Illustrator 24.2.0, SVG Export Plug-In . SVG Version: 6.00 Build 0)  -->
<svg version="1.1" id="carlosSVG" xmlns="http://www.w3.org/2000/svg" xmlns:xlink="http://www.w3.org/1999/xlink" x="0px" y="0px"
	 viewBox="0 0 854.9 772.5" style="enable-background:new 0 0 854.9 772.5;" xml:space="preserve">
<style type="text/css">
	.st0{fill:#FFFFFF;}
	.st1{stroke:#000000;stroke-miterlimit:10;}
	.st2{fill:none;stroke:#000000;stroke-width:2;stroke-miterlimit:10;}
</style>
<g id="grupo">
	<path d="M433.6,602.2c-9.5,14.6-18.7,29.4-28.5,43.8c-11.6,17-23.8,33.6-35.4,50.6c-2.2,3.2-4.1,3.5-7.6,2.4
		c-44.2-14.1-74.2-42.6-87.9-87.2c-5-16.4-8.7-33.2-13.2-49.8c-0.4-1.5-2-3.1-3.4-3.9c-12.4-6.9-25.8-4.2-39-4
		c-11.3,0.2-22.7,1.4-33.9,0.2c-12.3-1.2-23.8-6.1-33.4-14.1c-2.2-1.9-2.9-5.6-4.3-8.4c-1-2.2-1.5-4.8-3-6.5
		c-5.9-6.8-7.5-14.2-2.2-21.7c6.7-9.7,4.7-18.6-0.4-27.7c-3.3-5.9-3.2-12.2,0-17.6c3.8-6.6,1.5-11.1-3.7-16.6
		c-21.9,10-44.3,19.7-66.3,30.3c-19,9.1-37.4,19.2-53.4,32.9c-6.7,5.7-12,13-18,19.6c0-2.3,0-4.7,0-7c23.4-27.1,55.1-41.8,86.4-56.8
		c14.8-7.1,30.2-13,45.3-19.4c1.4-0.6,2.7-1.3,3.3-1.5c-0.6-6.4-1.1-12.5-1.6-18.5c0.5-0.1,1-0.2,1.5-0.4c-1.5-0.6-3-1.2-4.5-1.9
		c-11.7-5.3-17.1-15.4-13.6-27.6c2.2-7.6,5.9-14.8,9-22.1c3.1-7.1,4-14.4,0.5-21.5c-10.1-20.8-20-41.7-25.7-64.2
		c-2.8-11.1-3.9-22.3-0.1-33.4c1.6-4.7,4.2-6.2,8.1-3.1c5.5,4.3,10.4,9.2,16.3,14.5c0.7-1.4,1.6-2.8,2.2-4.3
		c0.9-2.5,1.2-5.3,2.5-7.5c11.4-18.6,15.6-39.8,21.3-60.5c3.9-14.1,6.9-28.4,10.5-42.6c0.6-2.5-0.2-6.3,4.6-6.2
		c0.8,0,1.7-2.2,2.5-3.4V137c-8.8,31.6-17.4,63.2-26.4,94.7c-1.4,4.9-4.4,9.2-6.3,14c-1.9,4.7-3.2,9.6-4.9,14.4
		c-0.4,1.2-1.3,2.6-2.3,3.3c-3.5,2.4-6.4,2.2-9.6-1.5c-4-4.7-8.8-8.7-13.5-13.3c-6.3,11.9-3.1,33.6,2.6,45.1
		c-1.4-10.8-2.7-20.9-4-30.9c0.4-0.1,0.7-0.2,1.1-0.3c1.1,2.5,1.6,6.2,3.4,7s5-1.2,6.2-1.6c-0.2,4.6-0.4,9.5-0.7,14.3
		c-0.1,1.4-0.8,2.7-1.2,4.1c-0.3,0.9-1,1.9-0.7,2.6c2.7,7.8,3.5,16.3,9.6,22.6c0.8,0.8,1.9,2.2,1.6,2.8c-2.5,5.8,3.2,6.4,5.6,9
		c0.6,0.7,3,0.8,3.5,0.3c0.8-0.9,0.7-2.6,1-3.9c0.3-1.7,0.5-3.3,0.8-5c0.4-3,0-6.6,1.6-8.8c1.5-2.1,5-2.7,7.6-4
		c-0.3-0.6-0.6-1.3-0.9-1.9c-1.3,0.7-2.7,1.5-4,2.2c-2.1,1.1-4.6,1.8-5.3-1.1c-1.6-6.6-2.5-13.4-3.2-20.2
		c18.2,14.2,29.9,42,9.6,67.3c-1.7-1.5-3.4-3-5.1-4.4c-0.3,0.2-0.6,0.4-0.9,0.6c0.8,1.7,1.6,3.5,2.4,5.2c-6.6-6.3-5-17.6-15.2-22.5
		c2.9,6,5.3,11.5,8.1,16.7c5.1,9.6,4.2,18.9-0.4,28.5c-3.5,7.3-6.5,14.9-8.5,22.7c-2.5,9.9,7.2,21.3,17.5,21.7
		c1.6,0.1,3.2,0.9,4.7,1.4c-0.9,1.2-1.6,2.6-2.7,3.6c-3.2,2.8-2.9,9,1,15.3c1.4-5.3,2.7-10.4,4.2-15.8c1.6,0.6,2.5,1,3.5,1.4
		c0.2-0.4,0.5-0.8,0.5-1.3c0.4-5.7,2.4-7.3,7.7-5.4c6.8,2.3,13.4,5.1,20.1,7.5c2.2,0.8,4.5,1.6,6.7,1.7c4.6,0.2,7.3-2.8,6.4-7.3
		c-1.8-8.3-2.3-16.9-7.8-24.1c-1.2-1.5-1-4.1-1.4-6.2c0.5-0.3,1.1-0.6,1.6-0.8c1.9,1.7,4,3.2,5.5,5.2c3.6,4.8,7.4,9.5,10,14.8
		c2.6,5.1,3.9,10.8,5.6,16.3c0.3,0.9-0.4,3-0.9,3.1c-5.4,1-9.4,6.8-15.7,4.7c-0.6-0.2-1.6-0.6-1.9-0.3c-3.5,3-7,6.1-10.4,9.2
		c0.3,0.5,0.6,1,0.9,1.5c1.7-0.7,3.4-1.3,5.1-2c2.1,3,4.3,6.2,6.7,9.7c5.2-3.3,8.7,0.9,12.9,4c-0.8,1.7-1.6,3.3-2.5,5.2
		c5.5-0.7,2.9,2.8,2.5,4.4c1.9-0.3,3.8-0.6,6.6-1.1c-1.2,3-1.9,4.8-2.3,5.8c2.9,1.7,5.4,3.3,8,4.8c-0.2,0.4-0.4,0.9-0.7,1.3
		c-1.4-0.2-2.8-0.5-3.4-0.6c0.8,4.3,1.5,8.2,2.2,12.2c-0.5,0.1-0.9,0.2-1.4,0.3c-0.9-0.7-1.8-1.4-2.8-2c-0.6,1.3-1.2,2.7-2.2,4.8
		c-0.6,0.1-2.1,0.9-3.5,0.7c-9-1-17.3,2.4-26,3.4c-5.9,0.7-4.4-4-7.3-6.6c2.5-0.5,4.3-0.9,7.3-1.5c-2.7-2.2-4.7-3.9-7.5-6.3
		c-1.8,4.2-3.2,7.4-4.7,10.8c-5.9,0.1-8.8-3.6-7.4-9.6c0.7-3,1.2-6.2,1.7-9.3c0.1-0.4-0.3-0.9-0.5-1.5c-1.1,0-2.3,0.3-3.4-0.1
		c-1.7-0.5-4.3-1.1-4.5-2.2c-0.5-1.9,0-4.4,1.1-6.1c0.6-0.9,3.4-1.1,4.9-0.6c7.9,2.6,15.7,5.4,23.6,8.2c2.2,0.8,4.3,1.4,6.7,2.2
		c0-6.8-4.8-17.3-8.1-18.6c-1.3,1.8-2.2,3.9-3.8,5.3c-0.8,0.7-3.8,0.6-4.1-0.1c-2.3-4.1-7.2-3.8-10.2-6.4c-4.1-3.5-7.3-2.3-9,2.9
		c-0.5,1.7-2.8,2.7-3.6,4.3c-2.5,5.3-4.5,12.7,1.1,19.1c4.7,5.3,4.6,19.9,0.3,25.7c-7,9.5-6.7,13,1,22.2c1.4,1.7,1.5,4.5,2.3,6.7
		s1.1,5.2,2.6,6.5c7.4,6.1,16.2,9.4,25.6,11.6c0.2-1.4,0.3-2.4,0.3-2.3c2.2,1.2,4.5,3.3,7,3.7c2.9,0.5,6.9,1.4,8.4-4.1
		c0.8,1.9,1.2,2.9,1.9,4.5c0.9-1.6,1.6-2.9,2.2-3.9c2,1.4,4,2.9,6.7,4.7c0.4-4.8,2.5-8.6,5.3-11.4c0.5-0.5,0.4-1.8,0.1-2.6
		c-0.7-2.2-1.6-4.3-2.3-6.1c2-2.4,3.7-4.4,5.7-6.7c2.5,1.3,5.3,2.8,8.3,4.4c-1-5.2-3.4-11.3,2.1-16.8c0.9,0.1,2.5,0.2,4,0.4
		c1.4,3.6,2.7,7,4,10.3c-0.4,0-0.8-0.1-1.2-0.1c-0.4,1.9-0.8,3.7-1.1,5.6c-0.1,0.8-0.6,0.4-2.3,3.7c-0.9,1.8,0.5,5.4,2,7.5
		c1.6,2.3,4.4,3.8,7.1,5.9c-1.8-4-3.5-7.9-5.3-11.9c0.4-0.2,0.8-0.5,1.2-0.7c1.1,1.3,1.9,2.9,3.2,3.9c1,0.7,2.6,0.7,3.9,0.9
		c-0.1-1.2-0.2-2.3-0.4-3.5c-0.3-1.5-0.8-3.1-1.2-4.6c1.7-0.1,3.3-0.3,5-0.3s3.4,0.4,5,0.2c3.4-0.4,5.2,0.6,4.3,4.9
		c2.1-0.3,3.6-0.5,5.7-0.9c-0.8-1.4-1.4-2.3-2.4-4c10.7,2.9,19.7-0.1,28.3-5.6c-0.4-0.7-0.9-1.6-1.5-2.6c0.2-0.3,0.4-0.5,0.6-0.8
		c1.4,0.7,2.9,1.1,4.1,2c1.4,1.1,2.5,2.7,3.7,4.1c0.5-1.5,0.7-3.3,1.7-4.4c1.8-2,4.1-3.5,6.8-5.7c1.6,1.1,3.7,2.5,5.9,4.1
		c1.3-3.8,2.5-7.3,3.9-11.5c1.6,0.4,3.6,0.8,5.6,1.4c5.3,1.5,8.3-0.1,9.5-5.5c0.5-2.6,3.1-5.5-0.4-8.1c-0.2-0.1,0.6-2.4,1-2.4
		c6.8-0.7,6.1-6.7,7.7-10.9c1-2.5,1-4.3,4.4-5.9c2.9-1.3,3.9-6.9,6-11.3c-2.8-0.3-4.2-0.5-5-0.6c1.2-2.5,3.1-5,3.5-7.7
		c0.4-2.9-0.5-6-1.3-9c-0.9-4-2.7-7.8-3.3-11.8c-1.3-8.3-1.2-16.9-3.2-25.1c-1.4-5.8-0.1-10.1,2.5-14.7c0.2-0.4,0.5-1,0.4-1.4
		c-0.8-7.3,4.9-10.8,9-15.1c1.1-1.1,4.6,0,8,0.2c-2-2.5-3.8-4.8-5.9-7.5c8-2.2,15.8-4.4,23.5-6.6c-0.1-0.3-0.1-0.7-0.2-1
		c-7.7,1.3-15.3,2.7-23,4c-7,1.2-8,0.4-9.9-6.3c-2.1-7.2-6.5-13-11.1-18.9c-4.8-6.1-10.1-11.3-16.5-15.4c-3.7-2.4-7.9-4.3-11.7-6.6
		c-4.6-2.8-5.6-8.5-3.7-13.4c1.1-2.8,1.5-6.9,0.3-9.4c-3.1-6.5-7.2-12.6-11.2-18.6c-4.8-7.3-10.3-14.2-14.9-21.7
		c-3-4.8-4.7-10.4-7.3-15.6c-1.3-2.5-3.4-4.6-4.7-7.1c-1.3-2.4-1.9-5.2-2.9-7.8c-0.4-1-1-2-2.1-3.9c-3.8,7.3-6.6,13.9-8.6,21.1
		c-3.9,14.9,3,26.9,9.2,39.3c3,6,5.9,12.1,8,18.5c-8.4-16-20-30.5-21.6-49.6c-3.9,3.9-6,10.3-8,23.4c-1.2,8.1-2.3,16.2-3.5,24.3
		c-0.7,0-1.3,0-2,0c-0.2-3.9-0.5-7.9-0.6-11.8c-0.2-17.4,4.6-33.4,12.5-48.8c3.4-6.7,5.2-14.3,7.6-21.6c1.3-3.8-0.1-6.9-3.5-9
		c-5.6-3.5-11.3-6.7-16.8-10.4c-2.9-1.9-5.2-4.6-7.8-6.8c-2.4-2.1-4.9-4-7.3-6.1c-0.7-0.6-1.8-1.7-1.6-2.1c0.4-0.9,1.4-1.9,2.3-2.1
		c1.6-0.3,3.7-0.6,4.9,0.1c4.4,2.6,8,0.5,11.6-1.4c1.2-0.6,1.5-2.8,2.3-4.5c-4.1-1.2-7.7-2.2-12.5-3.6c2.6-2.1,4.3-3.5,6-4.9
		c-0.1-0.6-0.2-1.1-0.3-1.7c-3.3,0.2-6.5,0.3-9.8,0.5c-0.1-0.4-0.2-0.7-0.3-1.1c2.8-0.7,5.5-1.8,8.3-2c6.2-0.5,12.3-1.2,17.9,2.9
		c4.5,3.3,5.4,7.4,1.8,11.6c-0.8,0.9-1.4,3.2-0.9,4c3.6,5.5,7.4,10.7,11.5,16.4c0.2-2.6,0.3-5.4,0.5-8.4c1.4,0.2,2.7,0.3,4.3,0.5
		c0.3-2.9-3.6-6.2,1.1-7.9c4.5-1.6,5.7,2.2,8,4.6c4.3,4.3,7.5,9.4,11.2,14.1c4.3,5.5,15.2,5.7,20.5,1c4.6-4.1,4.6-5.2,0-10.2
		c0.9-1.6,1.9-3.3,3-5.2c-6-2.6-11.7-2.9-17.8-2c-2.2,0.3-4.9-1.1-6.9-2.4c-0.4-0.3,1-3.5,1.7-5.4c0.3-1,0.8-1.9,0.8-2.1
		c-2.9,0.2-6,1.1-8.7,0.4c-0.9-0.2-0.7-4.5-1.1-7.5c-1.6-0.5-4-1.3-6.6-2.2c0.7-1.5,1.3-2.9,2.6-5.8c-5.9,2.3-10.5,4.1-15.9,6.1
		c-0.6-4.6-1-8.1-1.3-10.6c-3.9-1-7.1-1.7-10.2-2.7c-0.1,0,0.7-2.8,1.1-4.6c-1.2,0.1-2.6,0.2-5.1,0.5c4.7-7.1,8.8-13.7,13.3-20
		c4.9-6.9,10-13.6,15.4-20.1c1.4-1.8,4-2.6,6.1-3.8c0.5-0.3,1-0.7,1.5-1.1c7-6.7,13.9-13.4,21.7-20.9c-1.2,3.1-2,5.2-2.8,7.3
		c0.3,0.2,0.6,0.4,0.9,0.6c1.7-2.2,3.4-4.4,5.2-6.6c0.4,0.1,0.8,0.2,1.2,0.2c-0.6,1.8-0.7,4.3-1.9,5.3c-8.5,7-9.1,18.5-14.8,25.4
		c3.1-0.1,6.8,0.1,10.2-0.6c2.4-0.5,4.4-2.4,7.5-4.1c-1.1,2.5-1.8,4-2.7,5.9c7.3,0.4,9.4-9.6,18.6-7.3c-4.1,5.8-7.8,11-11.5,16.2
		c5.7-3,9.7-9.5,16.6-9.6c0.2,0.6,0.5,1.1,0.7,1.7c-2.4,2.3-4.9,4.5-7.3,6.8c0.3,0.4,0.5,0.8,0.8,1.1c2.1-0.8,4.3-1.6,6.4-2.5
		c1,4-6.7,5.9-1.9,10.2c-2.4,3.6-6.9,6-6.1,12.4c7.3-5.5,11.6-13.8,21.6-13.2c-3,2.3-6.1,4.6-9.9,7.5c4.2,0.7,7.4,1.3,11.6,2
		c-1.1,2.6-2.3,5.4-3.5,8.2c0.3,0.3,0.6,0.7,1,1c6.8-5.2,13.6-10.4,20.4-15.5c0.4,0.2,0.9,0.4,1.3,0.5c-1.7,7.8-3.3,15.6-5,23.5
		c2.7-1.3,6-2.9,9.7-4.7c0.1,5.9-8.3,7.5-6.6,14.2c4.7-3.8,8.6-7.1,13.3-10.9c0.2,2.3,0.3,3.7,0.4,4.6c4.8-2.5,9.4-5,14.1-7.2
		c0.8-0.4,2.2,0.3,4.3,0.6c1.9-1.9,4.8-5,8-8.3c3.4,3.6,1.6,6.1-0.3,8.7c-3.9,5.4-7.8,10.9-11.7,16.3c0.4,0.5,0.8,1,1.2,1.5
		c4.2-2.7,8.5-5.5,12.7-8.2c2.3,4.1,1.2,7.8-1.9,10.6c-2.4,2.2-3.9,5.4-5.5,8.3c-0.3,0.6,0.7,1.8,1.2,2.8c0.9-0.6,1.8-1.1,2.6-1.7
		c2.1-1.7,4.2-3.5,6.3-5.2c0.4,0.4,0.9,0.8,1.3,1.2c-0.8,1.8-1.7,3.7-2.6,5.7c8.7-6.8,17.3-13.5,25.9-20.1c0.4,0.5,0.9,1,1.3,1.5
		c-4.2,3.9-8.3,7.8-13,12.2c5.2,0.9,9.9,4.1,14.7,0.2c1.5-1.3,2.1-3.7,3.4-5.2c1.4-1.6,3.2-2.8,4.8-4.2c0.3,0.3,0.7,0.5,1,0.8
		c-2.1,3.3-4.4,6.6-6.4,10c-4.1,6.7-3.9,7.6,1.4,13.1c-2,1.3-4,2.6-6.1,3.8c0.6,0.3,1.1,0.5,1.7,0.8c-2.2,3-4.4,6.1-6.6,9.1
		c0.2,0.2,0.4,0.5,0.7,0.7c0.8-0.6,1.6-1.1,2.4-1.7c5.3-4.1,10.6-8.1,16.9-13c-1.8,3.2-3.2,5.6-4.8,8.5c4.4-2.6,8.3-4.9,12.4-7.3
		c2.4,8.1-4.3,12.8-5.9,19.7c7.3-2.2,7.1-12.2,13.5-13.2c5-4,9.4-7.4,13.9-11c3.4,9.4-4.3,14.7-7.1,21.5c-1.8,4.3-4.5,8.2-6.9,12.3
		c0.4,0.3,0.8,0.6,1.2,1c2.5-2.2,4.9-4.3,7.4-6.5c0.2,0.2,0.5,0.5,0.7,0.7c-2.2,2.3-4.4,4.7-6.5,7c0.5,0.5,1,1.1,1.5,1.6
		c9.1-7.5,18.2-15.1,27.4-22.7c0.1,0.5,0.3,1.4,0.5,2.3c3-3.5,5.9-7,8.9-10.4c-0.1,6.7-1.2,12.2-5.6,17.4
		c-7.6,9.1-13.9,19.2-20.5,28.6c0,0,1-0.2,2.6-0.6c-1.5,2.2-2.7,4.1-3.8,5.6c4.2-2.6,9.2-4.8,13-8.2c3.9-3.5,6.8-8.1,10.1-12.2
		c0.4,0.2,0.7,0.4,1.1,0.6c-3.5,6-7.1,12-10.7,18.2c5.7-3.1,14.8-13.5,17.9-18.8c4.5-7.7,9.7-15,14.9-23.1c0.6,1.8,1,3.1,1.4,4.4
		c-0.4-0.2-0.7-0.4-1.1-0.5c-4,6.4-8,12.7-11.9,19.1c0.4,0.4,0.8,0.9,1.2,1.3c2-1.8,4.1-3.5,5.9-5.4c1.6-1.8,2.6-4.6,5.2-2.4
		c1.6-4.6,3.3-9.4,5-14.2c0.5,0.1,1.1,0.3,1.6,0.4c0,1.9,0,3.9,0,7.3c3-2.7,5-4.5,6.7-6c1,4.9,2,9.9,3.1,15.3c3.3-3,6.3-5.8,9.3-8.6
		c0.4,0.3,0.9,0.6,1.3,0.9c-2.9,7.2-5.8,14.4-8.4,20.7c3.7-2.8,8.5-6.5,14-10.7c0.5,2.7,0.7,4,0.8,4.5c3.1-4.5,6.4-9.2,9.7-14
		l-0.1,0.1c3.7-5.5,4.6-11.1,3.5-17.9c-1.9-11.9-2.2-24-3.4-36.1c-0.2-2.3-1.4-4.5-2.1-6.8c-0.5,0.1-1,0.3-1.5,0.4
		c0,1.2,0,2.4,0,3.6c-3-14-3.9-28.8-15.3-41c0,2.6,0,4.1,0,5.5c-0.4,0.1-0.7,0.3-1.1,0.4c-0.8-2.1-1.8-4.1-2.4-6.3
		c-1.1-4.1-1.6-8.3-3-12.2c-0.7-1.8-2.6-3.9-4.4-4.5c-3.2-1-4.9-2.7-6.3-5.7c-3-6.2-6.6-12.2-11.2-18.1c-0.3,2.1-0.6,4.2-0.9,6.6
		c-3.6-1.1-5.7-3-5.9-6.7c-0.4-6.2-3.9-8.5-10.3-7.1c-8-8.4-16.1-16.7-25-26.1c3-0.8,4.5-0.8,5.3-1.6c1-0.9,2.1-2.4,2.1-3.6
		c0-4-0.4-8-0.7-12c0.4-0.1,0.9-0.2,1.3-0.3c1.1,1.2,2.1,2.4,4.2,4.7c1.2-5,2.2-9.1,3.1-13.3c0.7-3.3,2.4-3.7,5.6-3.4
		c1.8,0.2,3.8-2,5.8-3.2c4.8-2.9,9.6-5.8,15.7-9.5c-0.3,6.9,3.6,5.4,7.6,5.6c-2,2.5-3.5,4.4-5.6,7c3.5-1.6,6.2-2.8,8.8-4
		c3.1-1.4,5.7-3.4,9.4-0.1c1.7,1.5,5.7,0.5,8.7,0.4c14.2-0.1,25.2,5.5,32.7,17.8c4.9,8,9.3,16.5,16.8,22.7c2,1.7,2.9,4.7,4.5,6.9
		c2,2.6,4.2,5,6.3,7.5l-0.2-0.2c2.6,2.2,5,4.8,8,6.4c4.9,2.7,2.5,8.6,5.5,11.6c3.7,3.7,0.7,5.3-1.7,8.9
		c-5.6-5.7-10.5-10.8-15.6-15.8c-12-11.6-22.9-24-31.3-38.6c-3.4-5.9-8.9-8.7-16.1-8.6c12.3,15,14.8,32.3,14.8,50.3
		c0.6,0,1.3,0,1.9,0c1.3-7.7,2.6-15.3,4-23.9c2.3,1.7,4.9,3.1,6.9,5c4.3,4.1,8.4,8.5,12.5,12.9c6.5,6.8,12.9,13.7,19.5,20.5
		c1.8,1.8,3.2,3.2,1,5.8c-0.6,0.7,0,3,0.8,3.9c3.2,3.8,3.1,5.8-1,8.1c-0.4,0.2-1.1,0.4-1.2,0.8c-2.9,7.9-7.3,3-11.5,1.6
		c-1.5-0.5-3.2-0.1-4.9-0.1c0.2,1.6-0.2,3.8,0.7,4.6c3.2,2.8,6.7,5.3,10.4,7.5c2.5,1.5,5.5,2.2,8.8,3.4c-1.1,1.3-1.7,2.2-2.5,2.9
		c-2.4,2-1.3,3.2,0.7,4.6c1.4,1,2.5,2.4,3.8,3.6c1.7,1.6,3.5,3.2,5.3,4.8c-2.3,2.3-7.6-3.1-7.5,3.4c-6.1-1.3-7.7-3.2-8.6-8.7
		c-0.6,4.2-1,8.4-1.9,12.6c-0.4,2-1.9,3.9-2.5,5.1c1.1,1.7,2.7,3.5,3.4,5.6c1.5,4.1,5.7,4.7,7.7,3.3c5.3-3.5,10.3,0.3,15.3-0.7
		c0.9-0.2,2.3,0.5,2.8,0c3.7-3.7,8.4-1.4,10.4,0.4c2.8,2.5,8.1,4,7.3,9.8c-0.2,1.1,2,2.5,3.2,3.9c-2.4,11-7.1,21-17.9,25.9
		c-2.3-1.2-5.2-3.8-6.3-3.1c-2.4,1.3-4.9,4.1-5.4,6.6c-2,10-9.2,15.8-16.3,21.8c-0.9,0.8-3.1,0.1-5.1,0.1c2.3,5.7-8.1,8.4-1.9,15.1
		c-3.3,0.2-5.3,0.3-7.6,0.4c0.7,2.4,1.2,4.4,1.7,6.2c-4.8,2.5-9.6-6-14,0.8c1.2,0.9,2.2,1.7,4.6,3.5c-4,2.1-7.3,3.8-10.9,5.7
		c0.4,1,0.7,2.3,1.2,3.4c1.4,3.1,0.1,5-2.4,7.2c-5.2,4.6-9.8,9.8-14.7,14.8c0.3,0.3,0.6,0.6,0.8,1c1.4-0.7,2.8-1.3,4.7-2.3
		c0.5,1.5,0.6,2.8,1.3,3.8c0.9,1.1,2.2,1.9,3.3,2.9c0.6-1.5,1.4-3,1.5-4.6c0.1-1-1.5-2.2-1.2-3c0.4-1.3,1.6-2.3,2.5-3.4
		c1.2,1,3.6,2.4,3.4,3.1c-1.2,4.5-3,8.9-4.4,13.4c-0.5,1.7-0.8,3.6-0.7,5.4c0.2,4.2,3.4,8.9-3.1,11.9c5.6,2.9,10.9,3.6,16.5,2.8
		c1.6-0.2,3.3,0.7,5.8,1.4c0.4-0.6,1.1-1.9,2.1-3.6c5.5,6.4,11.7,4.8,18,2.4c0.1,0.5,0.2,1,0.2,1.5c-2.4,1.8-4.8,3.6-8,6.1
		c-5.8-3.2-7.3,4.5-11.6,6.1c-2,0-4.1,0-6.5,0c2,2.9,3.5,4.9,4.6,6.5c4.5,3.3,8.7,6.5,13.5,10.1c-1.8,1.1-4.2,2.1-6,3.8
		c-1.3,1.2-1.7,3.3-2.5,4.9c1.5,0.5,3.2,1.6,4.6,1.3c4.9-1,10.6-1.2,14.2-4c4.8-3.7,10.5-4.5,15.4-7.3c5.2-3,9.9-5.5,14.3-1
		c-2.4,3.1-4.8,6.2-7.3,9.4c-0.4-0.2-0.8-0.4-1.2-0.6c1.4-3.1,2.7-6.2,4.1-9.3c-0.3-0.4-0.6-0.7-0.9-1.1c-3.3,2-6.6,3.9-9.9,5.9
		c0.1,0.3,0.2,0.5,0.3,0.8c1.7-0.4,3.4-0.7,5.2-1.1c0.1,0.4,0.3,0.7,0.4,1.1c-3,1.1-6.1,2-8.9,3.4c-2.8,1.4-5.3,3.3-8.4,5.3
		c3.1,2.6,5.2,4.4,6.7,5.6c-3,1.9-6.1,3.7-9.1,5.6c0-1.5,0-3.1,0-4.2c-5.6,0.6-10.6,0.8-15.5,1.7c-2.2,0.4-5.7,0.5-5.1,4.7
		c0.1,0.6-1.5,1.9-2.4,2.1c-3.2,0.6-3.9,2.5-3.5,5.4c0.1,1-0.3,2.1-0.7,3.1c-2,4.2-4,8.3-6.1,12.5c0.5,0.4,0.9,0.8,1.4,1.2
		c1.3-0.4,2.8-0.6,4-1.2c6.3-3.3,6.4-3.4,9.5,3c1.2,2.4,1.9,5,2.7,7.5c0.5,1.5,0.8,3.1,1.1,4.7c0.5-0.1,0.9-0.2,1.4-0.3
		c-0.5-3.2-1-6.4-1.6-9.6c-0.6-2.8,0.3-4.4,3.3-4.9c4-0.8,7.1,0,10.6,2.3c0.9,0.7,2.8,0.2,4.1,0c0.6-0.1,1.6-1.3,1.7-1.2
		c3.1,2.9,4.1-0.7,4.2-1.9c0-1.5-1.3-4-2.7-4.5c-2-0.7-4.5,0-6.8,0.1c0.7-4.3-1.9-3.9-4.9-2.8c-3.8,1.4-7.6,3-11,4.4
		c-2.1-4-4-7.7-6.4-12.2c4.4-1,8.9-2.3,13.5-2.9c5.9-0.8,9.1-3,9.1-7.3c9.5,1.7,19.2,2.7,28.5,5.3c26,7.2,52.2,14.1,77.7,22.8
		c33.5,11.4,65.4,26.6,94.1,47.7c19.7,14.4,36.8,31.1,47.5,53.6c1.2,2.5,2.2,5.2,3.3,7.7c-0.3,0.4-0.6,0.7-1,1.1
		c-1.1-0.8-2.8-1.4-3.3-2.5c-14.4-32.7-40.5-54.1-70.2-71.6c-43.3-25.5-90.2-41.7-139-52.9c-4.4-1-8.7-2.1-13.1-2.7
		c-1.7-0.2-4.6,0.2-5.2,1.4c-0.8,1.4,0,3.9,0.3,5.8c0.2,0.9,1.2,1.6,1.4,2.4c0.3,1.2,0.3,2.6,0.4,3.8c1.5-0.7,2.9-1.4,4.7-2.3
		c0.3,2,0.7,4.4,1.1,6.8c-0.3,0.4-0.6,0.8-0.9,1.2c-1.9-1.2-3.8-2.2-5.6-3.6c-1.9-1.4-3.6-3.1-6.3-5.5c-0.5,6.5,0.9,13-5.9,13.8
		c0.4,2.5,0.6,4.1,0.9,5.6c-3.1-0.6-6.1-1.3-9.2-1.7c-1.2-0.1-2.6,0.6-3.9,1c1,1,2,2,3,3c0.2,0.2,0.3,0.5,0.5,0.8
		c-1,0.3-2,0.6-3.4,1c2.5,3.4,5.2,3.3,7.8,1.2c1.9-1.6,3.4-3.6,5.1-5.4c1.2,1.4,3.3,2.7,3.4,4.2c0.5,5,4.2,8.1,6.2,12.1
		c0.2,0.3,0.8,0.4,2.7,1.2c-4.5,1.5-7.9,2.1-11,3.6c-4.2,2.1-1.2,4.9-1.1,6.8c-2.3,3.6-5.2,6.9-6.6,10.8c-1.7,4.8-1.3,5.1-6.9,2.7
		c2.1,5.2,0.8,9.3-1.7,13.7c-2.2,3.8-2.8,8.5-4.4,14c-1.5-2-2.2-2.5-2.3-3c-0.3-7-6.4-6.3-10.5-7.4c-3.9-1-6.7,4.1-4.7,8.2
		c1.3,2.7,2.9,5.5,5.1,7.3c3.5,2.8,5.7,5.7,4.4,11.3c2.2-1.5,3.4-2.3,5.4-3.7c3.8,8.3,4.8,17,5.3,25.5c0.5,8.4-1.1,17-1.8,25.6
		c-1-1.7-2.2-3.7-3.3-5.7c-0.4,0.1-0.8,0.2-1.3,0.3c0.7,4.2,1.5,8.4,2.3,13.4c-4.8-1.1-9.4-2.5-14.1-3c-2.1-0.3-4.4,1.2-7.1,2
		c5.9,7.2,14.7,8.8,21.9,12.9c-0.2,0.5-0.3,1-0.5,1.5c-4.9-1.5-9.7-2.9-14.6-4.6c-1.2-0.4-2.2-1.7-3.4-2.1c-3.3-1-8.3-3.5-9.9-2.2
		c-4.1,3.5-8.1,8.3-6.9,14.6c0.7,3.8-0.7,8.1,4.7,10.9c2.5,1.3,3.6,7,3.7,10.8c0.1,3,1.2,5.1,2.4,7.4c0.5,1,0.6,2.1,0.9,3.4
		c9.9-0.3,17.1-4.1,17.8-15.6c1,0.6,1.7,0.8,1.8,1.1c1.2,8.6-6,20.1-14.2,22.8c-0.8,0.3-1.7,0.8-2.4,0.6c-6.3-1.5-10.5,1.3-13.9,6.3
		c-0.6,0.9-2.7,0.9-5.2,1.6c2.7-3.8,4.7-6.7,6.1-8.7c-3.8-3.2-6.9-5.8-10.7-8.9c-0.4,2.3-0.8,4.3-1.1,6.3c-0.3,1.9-0.6,3.7-1,5.6
		c-0.6,0.1-1.1,0.2-1.7,0.2c-1.1-3.3-2.1-6.6-3.3-9.8c-3.9-11.1-2.9-22.5-2.3-33.9c0.2-3.1-0.9-6.5-0.1-9.4c1.9-7,2.1-13.7-1.4-20.6
		c0.6-0.2,1.1-0.4,1.7-0.6c3.2,3.5,6.4,7,9.7,10.4c0.4-0.3,0.9-0.7,1.3-1c-4.6-7.1-9-14.5-14-21.2c-1.4-1.8-5-2.4-7.6-2.6
		c-0.7,0-1.7,3.7-2.4,5.7c-1.7,5.2-3.1,10.5-4.9,15.6c-1.5,4.1,0.1,4.5,3.4,3.4l-0.1-0.1c0.9,2.3,1.8,4.6,3,7.7
		c-2.1-0.4-3.6-0.7-5.1-1.1c-3-0.7-8,2.2-7.3,4.8c0.8,3-0.3,3.2-2.5,3.8c-1.8,0.5-3.5,1.6-5.3,2.4c0.2,0.4,0.4,0.9,0.6,1.3
		c4.8-2.3,9.7-4.6,14.8-7.1c1.9,4.2,4.6,7.8,2.7,12.9c-1,2.7-0.5,5.9-0.7,8.9c-0.3,5.6-0.4,11.1-0.9,16.7c-0.1,1.2-1.3,3-2.3,3.2
		c-5.1,1.2-6,4.9-6.9,9.3c-0.5,2.5-1.7,5.2-3.5,7c-6.2,6.4-6.4,6.9-1.9,14.7c0.3,0.5,0.5,1.2-0.1,2.4c-0.9-1.1-2.2-2.1-2.5-3.4
		c-1.1-5-4.6-5.3-8.4-4.3c-4.5,1.2-8.9,2.7-13.2,4.5c-2.8,1.1-3.8,3.3-1.2,5.8c2.6,2.7,5,5.6,7.8,8.1c8.9,7.9,8.3,17.6,2.2,26.5
		c-5.2,7.5-13.1,10.6-21.2,13.3c-0.2-0.4-0.4-0.7-0.6-1.1c1.2-0.6,2.5-1.1,3.6-1.8c4.7-3.2,9.6-6.2,13.9-9.9c2.8-2.4,3-7,0-8.9
		c-4.4-2.7-4.8-7.4-6.8-11.1c-2-3.6-4.6-5-7.9-4.8c-4.6,0.3-8.7-0.3-13.3-1.8c-4.5-1.5-9.8-0.2-14.7-0.4
		c-10.8-0.4-17.1-8.5-18.5-14.6c-0.3-1.1,0-2.2,0-4c1.4,0.9,2.4,1.6,3.7,2.5c0-1.8,0-3.3,0-5.3c-4.7,2.3-5.7,0.2-5.2-3.7
		c1-8.1,1.5-16.3,6-23.6C433.9,604.1,433.5,603,433.6,602.2c4.7-1.9,12.7-13.2,12.8-18.2c0-0.2-0.4-0.5-1-1.1
		C441.4,589.4,437.5,595.8,433.6,602.2z M283.9,563.3c-2,2.9-0.5,4.7,2,5.9c0.7,0.3,2-0.1,2.7-0.6c0.5-0.3,0.7-1.9,0.5-2
		c-1.7-1.1-3.6-2.1-5.4-3.1c0.7-3.3-0.6-5.7-3.4-7.2c-0.4-0.2-2.3,1.4-2.4,2.3C277.6,562.8,280.8,563,283.9,563.3z M299.8,582.5
		c0.2-1.4,0.9-3.7,0.4-4.1c-1.3-0.9-3.2-1.1-4.9-1.3c-0.2,0-1.2,2.1-0.9,2.4c1.2,1.3,2.8,2.3,4.2,3.4c0.2,0.1,0.9-0.3,1.3-0.5
		c0.2,1.5,0,3.2,0.7,4.3c0.8,1.1,2.5,2,3.9,2.2c0.8,0.1,1.8-1.5,2.7-2.3c-0.9-1-1.7-2.2-2.8-2.8C303,583,301.4,582.9,299.8,582.5z
		 M312.7,595.4c0.2-0.5,0.3-0.9,0.5-1.4c0.6-2.2,0.5-4.2-2.3-4.1c-1.5,0.1-3,1.2-4.4,1.8c1.4,1.3,2.6,2.6,4.1,3.7
		c0.5,0.3,1.6-0.1,2.4-0.3c-0.3,0.8-1,1.8-0.7,2.2c1.1,1.5,2.4,3.2,4,4c0.6,0.3,2.3-2,3.5-3.2c-1.4-1.1-2.7-2.3-4.3-3.1
		C314.7,594.7,313.6,595.3,312.7,595.4z M358.3,633.1c0.7-0.6,1.9-1,2.1-1.7c2.3-7.8,8-13,14.4-17.2c3-2,6.6-2.9,9.8-4.6
		c3.3-1.9,7-3.7,9.4-6.5c1.4-1.6,2-2.9,4.4-3.1c1.2-0.1,2.5-1.9,3.2-3.3c0.3-0.5-0.9-2.5-1.6-2.6c-1.3-0.3-2.9,0.1-4,0.8
		c-1.3,0.8-2,2.6-3.3,3.4c-8.6,5.2-17.4,10.1-25.9,15.4c-4.5,2.8-6.8,2.6-9.5-1.9c-0.5-0.8-2.7-1.6-3.5-1.2
		c-5.4,2.6-8.2,9.9-5.5,15.4c1.6,3.2,0.8,5-1.6,7.2c-3.3-4.7-6.4-9-10-14.1c1.6-3.1-0.5-5.4-4.8-6.4c1.9-5.3-1.4-6.4-5.3-7
		c-0.2-1.3,0-2.8-0.7-3.4c-0.9-0.9-2.5-1.7-3.7-1.6c-1,0-2.6,1-2.9,2s0.3,3.2,0.9,3.4c3.4,0.9,4.8,3.2,5.9,6.1
		c0.3,0.8,2.1,1,3.3,1.5c-1.2,4.3,7.5,19.8,13,23.3c-0.7,2.1-1.5,4.3-2.3,6.6c2.6,0.7,4.8,1.3,6.5,1.8c-0.4,2.1-0.7,3.6-1.1,5.1
		c-0.6,1.8-1.4,3.5-2.1,5.3c-1.5-0.9-3-1.9-4.6-2.8c-0.4-0.2-0.9-0.2-2.1-0.5c-0.6,2.9-0.6,6-1.9,8.4c-2.9,5.7-2.3,9.9,2.2,13.8
		c-1.1,2.6-2.1,4.9-3.5,8.2c10.1,4.6,20.8,9.4,31.9,14.5c0.9-2.4,1.4-3.7,2.1-5.4c-6.4-1-12.8-0.2-16.6-4.4
		c1.8-4.6,3.6-8.4,4.8-12.4c0.5-1.7-0.9-4.4,0-5.4c2.6-2.9,2.8-6,2.6-9.6c-0.1-2.9,0-6.2,1.4-8.6
		C363.6,644.9,363.2,638.9,358.3,633.1L358.3,633.1z M412.3,357.3c-3.7-4.4-7.5-8.7-11.2-13.1c-0.2,0.1-0.3,0.3-0.5,0.4
		c1.9,5.7,3.9,11.4,5.6,16.5c2-1.3,4.1-2.6,6.2-4c-0.4,1.8-1.2,3.5-1.2,5.3c0,3.5,0.6,7,0.5,10.4c-0.2,6.4-0.9,12.9-1.4,20.3
		c1-2.4,1.6-3.7,2.1-5.1c2.2-5.9,3.7-6.4,7.6-1.8c0.9,1,1,3,0.9,4.5c-0.3,6.2-0.9,12.3-1.5,19.8c2-3.3,3.3-5.4,4-6.6
		c2.2,2,4.1,3.7,6.5,5.8c-0.2,0.6-0.8,2.2-1.2,3.7c-1.1,4.8,1.1,7.4,5.7,7.6c3,0.1,6.7-0.2,8.7,1.4c5.9,4.6,9.9-0.3,13.6-1
		c-0.4-1.9-1.3-3.3-0.9-4.1c3.4-7.5,6.6-15.2,10.8-22.3c7-11.8,2.7-33.8-16.8-35.6c-9-0.8-17,1.3-24.3,7.3c0.3,1.3,0.6,2.8,0.9,4.3
		c-0.3,0.2-0.5,0.3-0.8,0.5c-1.6-1.8-3.3-3.6-5.5-6.1c0.2,2.2,0.3,3.3,0.4,4.5c-0.4,0.1-0.8,0.3-1.1,0.4c-1-2.3-1.8-4.7-3-6.9
		C415.3,361.3,413.7,359.3,412.3,357.3z M355.9,221.1c-1.2-0.8-1.5-1.1-1.8-1.1c-6.4-0.2-6.3-0.2-4.8-6.1c0.7-2.6-0.6-3.8-2.9-2.7
		c-5.1,2.4-8.1-0.5-11.3-3.5c-0.8-0.7-1.8-1.9-2.6-1.8c-4.3,0.6-9.3,0.4-12.8,2.6c-5.5,3.5-7.5-0.5-11-2.8
		c12.2-6.2,13-6.9,13.5-12.3c-6.7,2.2-12.7,4.6-17.8,9.3c-2,1.9-4.6,3.1-6.7,5c-1.2,1.1-2.8,3.1-2.5,4.2c1.2,4.8,3.3,9.4,4.5,14.2
		c1.6,6,3.5,12.2,3.7,18.3c0.3,11.2,7.9,23.7,18.2,27.9c1.5,0.6,2.8,1.9,4.3,2.5c1.3,0.5,2.9,0.5,4.3,0.8c0-1.5,0.1-3,0.1-4.5
		c0-1.3-0.3-3.5,0.2-3.7c4-1.8,8.1-4.1,12.4-4.7c9.2-1.2,10.8-3.1,8.5-12.9c-2.2,0.5-4.4,1.1-6.6,1.3c-1,0.1-2.2-0.3-3-0.9
		c-0.4-0.3-0.6-1.7-0.2-2.2c2.7-3.4,5.5-6.7,8.3-10c0.9-1.1,1.8-2.3,3.3-4.2c-4.5,1-7.6,1.8-10.7,2.5c-0.4-0.8-0.7-1.6-1.1-2.4
		C346.2,229.6,350.9,225.5,355.9,221.1z M286.3,551.7c-0.2,0.4-0.4,0.9-0.7,1.3c3.2,2.7,6.3,5.7,9.7,8.1
		c12.8,9.2,26.2,17.4,41.9,20.6c4.6,0.9,9.5,1.4,13.9,3c7,2.5,14,4.2,21.4,3.8c7.9-0.4,15.4-1.9,20.9-8.5c1.2-1.5,3.1-2.5,4.5-3.9
		c1.4-1.5,2.5-3.2,3.8-4.8c-1.5-0.8-2.9-1.7-4.7-2.7c1.7-8.3-3.5-3.4-6.8-2.4c0.5-1.9,0.9-3.3,1.7-6.2c-3.8,2.2-6.6,3.5-8.9,5.4
		c-2.9,2.2-5.1,2-7.1-1c-0.5-0.7-1.2-1.3-0.8-1c-2.8,1.4-4.8,2.4-6.7,3.5c-2,1.2-4.4,2.2-5.6,3.9c-2,2.9-1.8,8.3-7.8,5.6
		c-0.3-0.1-0.9,0.4-1.3,0.7c-3.6,2.7-8.3,2.9-11.7,1.5c-4.9-2-9.1-6-13.5-9.1c2.2-0.9,4.4-1.7,7.2-2.8c-4.2-1-7.1-1.6-9.9-2.7
		c-0.3-0.1,0.4-2.8,0.6-4.4c7.3,1.6,11.7,1.1,13-0.6c-2.3-1.1-4.8-2.3-7.3-3.5c0.2-0.4,0.4-0.8,0.5-1.1c-0.8,0.4-1.6,0.8-2.6,1.2
		c0.1-4.8,1.5-5.9,5.2-4.6c1,0.3,2.2,0.2,3.2,0.3c0.1-0.5,0.1-1.1,0.2-1.6c-5.5-1.6-11-3.2-16.4-4.8c1.5,2.4,3.1,4.8,4.6,7.3
		c-1.9,0.3-3.5-0.4-5.1-1.2c-2.3-1-4.4-2.7-6.8-3c-4.6-0.4-9,0.5-11,4.9c-4.9,0.8-2-8.1-7.1-6c-0.3,2.2-0.5,3.9-0.6,4.6
		C292.6,551.7,289.5,551.7,286.3,551.7z M270.7,584.2c-0.6,29.6,32.9,83.3,57.3,93.8c-0.5-1.6-1.9-3.9-1.9-6.2c0-3.3,1-6.6,1.8-11
		c4.9-3.4,4.9-3.4,0.3-9.3c-0.6-0.8-1.4-1.5-1.7-2.4c-2.1-6.6-2.7-14.1-10.3-17.4c-0.3-0.1-0.5-0.5-0.5-0.8c-0.9-5.1-4-6.8-6.9-6
		c-4.1-3-6.8-5.4-9.9-6.8c-0.7-0.3-2.9,2.5-4.8,4.2c-0.3-0.3-1.4-1.1-3.1-2.4c-0.2,2.4-0.4,4.1-0.6,5.8c0.3-0.3,0.6-0.7,0.9-1
		c-2.6-1.8-5.4-3.4-7.6-5.6c-1.2-1.2-1.6-3.5-2.1-5.3c-0.5-1.9-0.5-4-1.2-5.9c-0.9-2.5-2.4-4.7-3.4-7.1
		C274.8,595.4,272.9,590.1,270.7,584.2z M372.2,441.4c1.6-1.4,2.9-2.2,3.8-3.3c8-9.5,16-19,23.7-28.7c3.3-4.2,1.1-11.4-4.1-11.7
		c-4-0.3-8.5-2.8-12.5,3.8c-4.8,7.9-9.4,15.5-13.1,24C367.4,431.5,369.2,435.8,372.2,441.4z M406.3,446.3
		c-1.1-8.4,5.9-14.7,4.3-23.2c-6,3-5.1,8.1-6,12.1c-2.5,0.6-5.3,1.3-6.2,3c-2.9,5.8-5,11.9-7.5,17.8c-3.6,8.6,6.4,4.5,8.1,8.4
		c0.1,0.3,3.5-0.9,5.4-1.4c0.2-0.1,0.2-0.7,0.5-0.8c1.3-1,2.7-2,4.1-2.9c0.5,0.3,1,0.6,1.4,0.9c0.3-4.5,0.6-9,0.9-13.7
		C409,446.3,407.6,446.3,406.3,446.3z M266.4,224.6c-2.7,8.2-0.2,14.5,2.5,21.4c5.7,14.3,15.3,24.9,26.3,34.8
		c1.4,1.3,3.1,2.1,4.7,3.1c0.2-1.7-0.1-2.7-0.7-3.6c-3.9-6-7.8-12-11.9-17.9c-7-10-13.8-20-16.8-32.1
		C270,228.3,267.8,226.5,266.4,224.6z M570,362.5c0.5-7-5.6-6.6-9.2-8.2c-1.4-0.6-4.8,0.4-5.6,1.6c-2.7,4.7,0.6,8.4,3.8,12.3
		c-2.2,0-3.8,0-5.7,0c-0.1,2.5-0.3,4.7-0.4,8c2.3-0.6,4.5-0.5,5.7-1.6c3.3-2.9,6.1-2.5,8.4,0.7c1.5-1.9,2.7-3.5,4-5.1
		c2.3,1,5.6,1.6,6.2,0.6c1.7-2.8,3.4-6.4,3.2-9.5c-0.1-2.4-3-4.8-4.9-6.9c-0.3-0.3-2.4,0.2-2.7,0.9C571.8,357.6,571,360.1,570,362.5
		z M507.9,447.7c1.9-9.7,6.3-18,2.4-27.5c-1.7,8-3.4,15.4-5,22.8c-0.3-0.1-0.5-0.2-0.8-0.3c-0.9-3.9-1.8-7.8-2.6-11.7
		c-0.6,0.1-1.1,0.2-1.7,0.4c0.1,2.3,0.3,4.7,0.5,7.7c0.9-1.4,1.4-2.1,1.9-2.9c0.4,0.2,0.7,0.4,1.1,0.6c-2.1,4.5-4.3,9-6.7,14.1
		c-0.6-1.8-1.1-3-1.7-4.8c-0.4,3.5-0.6,6.6-1.1,9.5c-0.5,2.8-1.5,5.6-2.3,8.3c0.5,0.2,0.9,0.3,1.4,0.5c1.2-1,2.5-2,4.2-3.4
		c-1.1,4.4-5,7.4-2.5,11.8c4.7-3.3,17.8-26.1,16.2-28.2C510.4,445.5,509.6,446.2,507.9,447.7z M536.9,41.2
		c2.6,7.2,5.4,13.9,7.3,20.8c2,7.1,4.6,13.8,9.2,19.8C559.7,71.5,550.6,47.1,536.9,41.2z M448.9,427.4c-7.8-2.6-12.2,2.2-16.9,6.7
		c-3.9,3.8-4.2,8.5-3.4,13.3c0.1,0.6,4.2,1.6,4.8,0.9c5.1-5.8,9.9-11.9,14.7-17.9C448.6,429.7,448.6,428.6,448.9,427.4z M364,542.7
		c-2.6,2.9-5.1,5.6-7.4,8.4c-0.3,0.4-0.1,1.7,0.3,2.2c0.4,0.4,1.6,0.5,2.2,0.2c3.4-1.5,6.8-3.1,10.1-4.7c0.4-0.2,0.5-0.7,0.9-1.2
		c-1.2-0.3-2.3-0.5-3.3-0.8c0.8-3.3,1.5-6.4,2.3-9.8c-1.1,0.3-1.8,0.6-2.4,0.7c-0.6,0.1-1.2,0.1-1.8,0.1c-0.1-0.5-0.3-1.1-0.4-1.6
		c2.3-0.6,4.6-1.3,7-1.9c2.3-1.2,4.7-3.7,0.5-5.8c-3,1.1-5.6,2.1-8.3,3.1c-3.9,1.4-4.6,3.8-2.1,7.1
		C362.5,539.8,363.1,541.2,364,542.7z M561.7,484.5c-0.3,0.3-0.6,0.6-1,0.9c2.7,4.8,4.6,10.6,8.5,14.2c3.4,3.2,9.1,3.9,13.8,5.7
		c0.2-0.4,0.4-0.8,0.6-1.1C576.3,497.6,569,491,561.7,484.5z M470.8,627.9c11.1-4.9,10.8-11.4,5.8-18.8c-5.4,1.8-7.6,8.4-4.3,11.8
		C471.9,623.2,471.5,625.1,470.8,627.9z M402.7,254.4c-11.9-4.2-27.1-1.2-27,5.4C384.9,257.9,394.2,256.1,402.7,254.4z M504,606.2
		c-0.8-0.1-2-0.6-2.6-0.2c-1.4,1-3.3,2.3-3.6,3.7c-0.3,1.7,1,3.6,1.6,5.4c1.6-0.6,3.6-0.7,4.7-1.8c1.8-1.8,3.5-4.1,4.1-6.4
		c0.6-2.1-0.2-4.6-0.7-6.8c0-0.2-2.4-0.4-2.4-0.3C504.7,601.7,504.4,603.6,504,606.2z M461.5,425.7c0.1,0.5,0.3,1,0.4,1.4
		c4.8-1.2,9.6-2.4,15.8-3.9c-2.4-1.5-3.1-2-3.7-2.4c0.9-2.2,1.8-4.3,2.7-6.3c-0.3-0.4-0.7-0.8-1-1.1c-3.9,1.9-7.8,3.8-11.9,5.8
		c1.8,1.2,2.9,1.9,4,2.6C465.7,423.2,463.6,424.5,461.5,425.7z M589.7,443c-6.1-1.7-11.6-3.3-17.1-4.9c-0.2,0.3-0.4,0.7-0.7,1
		c4.9,3.7,9.9,7.4,15.6,11.6C588.5,447.1,589.2,444.7,589.7,443z M415.7,253.5c6.5,0.5,15-3.8,17.1-8.6
		C425.1,243.9,417.7,247.6,415.7,253.5z M442.9,634.1c-4.6,6.4-4.6,6.6,2.5,11c3.8,2.3,5.9-0.4,7.6-2.8
		C449.5,639.4,446.3,636.8,442.9,634.1z M565.2,327.3c-0.5,0-0.9,0-1.4,0c0,2.4,0,4.9,0,7.1c-5.4-0.7-10.8-1.5-16.1-2.2
		c-0.1,0.5-0.1,1-0.2,1.6c6.8,1.7,13.6,3.3,21.2,5.2C567.4,334.5,566.3,330.9,565.2,327.3z M565.8,391.8c-3,0.9-5.9,1.7-8.3,2.4
		c2,4,4.1,8.2,6,11.9c1.4-3.6,2.9-7.1,4.4-10.9C564,395.9,565.4,393.3,565.8,391.8z M494.3,414c1.4,4.7,2.5,8.7,3.9,12.5
		c0.3,0.9,1.8,1.4,2.8,2.1c0.6-1.2,1.7-2.3,1.7-3.5c0-2.4-0.7-4.8-1-6.6C499.3,417,497.3,415.8,494.3,414z M135.8,340.2
		c0.5-0.3,1-0.6,1.6-0.9c-0.5-1.9-1.2-3.7-1.4-5.6c-0.7-6.7-0.7-6.7-8.5-7C130.4,331.6,133.1,335.9,135.8,340.2z M511.6,256.2
		c0.3,0,0.6,0,0.8,0c2.9-4,5.9-7.9,8.5-12c0.7-1.1,0.7-2.9,0.4-4.3c-0.3-2-1.2-3.9-1.7-5.5C517,241.5,514.3,248.8,511.6,256.2z
		 M505.2,275.8c0.4,0.7,0.8,1.4,1.2,2.1c6.5-3.6,13.2-7,18.9-12c-0.3-0.5-0.7-1-1-1.6C517.9,268.2,511.6,272,505.2,275.8z
		 M500.7,548.9c-0.6-6-6.6-10.4-12.3-9.1C492.5,542.8,496.6,545.9,500.7,548.9z M428.3,226.4c2.8-2.4,5.7-3.8,6.7-6
		c1.6-3.6,1.9-7.9,2.6-11.2c-0.9,0.6-2.5,1.7-3.5,2.4C432.3,216.1,430.6,220.6,428.3,226.4z M346.7,536.7c-3.3,1.5-6.2,2.8-8.9,4
		c0.4,1.2,0.8,2.6,1.2,3.9c2.2,0.2,4.3,0.4,6.3,0.7C345.8,542.3,346.2,539.7,346.7,536.7z M621.8,187.4c-4.4,4.3-1.6,8.2-0.1,12.3
		C625.3,198.1,625.3,195.5,621.8,187.4z M361.8,258.1c5.2-2.1,9.1-3.7,13.1-5.3c-0.2-0.5-0.4-1-0.6-1.5c-2.5,1-5,1.9-7.4,2.8
		c-1.1-1.9-1.9-3.4-2.8-4.9c-0.4,0-0.9,0.1-1.3,0.1C362.5,251.7,362.2,254.2,361.8,258.1z M348.7,542.2c0.1,0.6,0.2,1.2,0.3,1.7
		c2.5,0.6,5,1.2,7.5,1.8c0.5-0.4,0.9-0.7,1.4-1.1c-0.8-2-1.6-4-2.4-6C353.3,539.9,351,541.1,348.7,542.2z M445.5,549.9
		c-4.6-3.1-8.9-6.1-12.4-8.5C434.6,548.8,439.4,552.6,445.5,549.9z M534.5,439.9c0.4-0.3,0.9-0.7,1.3-1c-1.8-3.4-3.6-6.7-5.5-10.3
		c-1,2.2-1.8,4-2.9,6.2C529.8,436.4,532.2,438.1,534.5,439.9z M375.4,179c-3.8,1.2-5.9,1.8-8.6,2.7c-0.4,1.7-0.9,4-1.5,6.4
		c0.5,0.2,1,0.4,1.4,0.6C369.4,185.8,372,182.9,375.4,179z M402.7,596.1c0.8-0.4,1.6-0.8,2.4-1.2c1.1-1.4,2.5-2.6,3.1-4.2
		c0.2-0.5-2.3-2.8-2.6-2.6c-1.7,1-3.5,2.3-4.3,4C400.8,592.9,402.1,594.7,402.7,596.1z M541.8,248.7c-3.3,4-6.2,7.6-9,11
		C538.9,259.2,540.6,257.2,541.8,248.7z M384.2,441.4c-0.6-0.4-1.2-0.8-1.8-1.1c-2.5,3.8-5,7.7-7.5,11.5c0.6,0.4,1.2,0.8,1.8,1.2
		C379.2,449.1,381.7,445.2,384.2,441.4z M407.5,585.3c0.3,1,0.6,2.1,0.9,3.1c2-0.5,4.1-1,6.1-1.4c-0.4-1.3-0.8-2.6-1.2-3.9
		C411.4,583.8,409.4,584.6,407.5,585.3z M296.4,574c-2.7-1.8-4.4-3.1-6.3-4.1c-0.2-0.1-1.9,2-1.8,2.2c1.2,1.5,2.5,3.1,4.1,4.1
		C292.8,576.5,294.3,575.2,296.4,574z M558.9,512.6c0.7-0.1,1.3-0.3,2-0.4c-1.4-4.5-2.7-8.9-4.1-13.4c-0.5,0.1-1,0.3-1.5,0.4
		C556.5,503.7,557.7,508.1,558.9,512.6z M571.3,389c-3.1-2.1-6.2-4.1-9.2-6.2c-0.3,0.5-0.6,1-0.9,1.5
		C562.9,388.4,567,388.8,571.3,389z M442.1,622.9c1.3,2.1,2.3,3.7,3.3,5.4c1.3-1.9,2.7-3.8,4-5.8c-0.4-0.3-0.8-0.7-1.2-1
		C446.6,621.9,444.8,622.3,442.1,622.9z M425.7,568.9c-1.9,2.2-3,3.5-4.1,4.8c0.9,0.7,2.1,2.2,2.7,1.9c1.4-0.5,2.7-1.7,3.6-3
		C428.1,572.3,426.9,570.9,425.7,568.9z M442.9,542.6c0.3-0.4,0.6-0.9,0.9-1.3c-4.2-2.5-8.4-5.1-13.3-8.1
		C432.7,540,439.6,538.8,442.9,542.6z M423.5,579.3c-2.6-1-4-2-5-1.8c-1.1,0.3-2,1.7-2.9,2.7c0.9,0.8,2,2.2,2.8,2.1
		C419.7,582.1,420.9,580.9,423.5,579.3z M430,569.8c0.7,0.4,1.5,0.8,2.2,1.3c0.5-1.4,1.6-2.9,1.4-4.1c-0.2-1-2-2.5-3-2.5
		c-1.1,0-2.2,1.6-3.2,2.4C428.3,567.9,429.2,568.9,430,569.8z M420.2,217.2c-1.3,2.9-2.3,5-3.5,7.8c2.2-0.2,4-0.3,6.1-0.4
		C421.8,221.8,421.1,219.9,420.2,217.2z M190.8,450.3c-1.2,3.1-2.2,5.6-3.1,8.1c0.4,0.2,0.8,0.3,1.2,0.5
		C190.2,456.5,194.8,455.2,190.8,450.3z"/>
	<path d="M0,646.5c2.1,4.9,4.5,9.7,6.3,14.7c2.5,6.7,4.7,13.5,6.8,20.3c0.8,2.7,0.5,5.9,1.8,8.3c2,3.9,0.8,8.8,4.5,12.3
		c1.2,1.1,0.6,4.1,1,6.1c1.4,5.9,2.9,11.8,4.4,18.2c0.4-0.1-0.5,0.2-1.8,0.6c1.9,5.2,3.9,10.4,5.8,15.6c0.2,0.7,0.1,1.6-0.1,2.3
		c-1.2,4.7,0.2,8.3,4.7,11.1c-1.3,1.2-2.2,2.1-3.2,3.1c1.4,1.9,2.6,3.6,3.1,4.3c-1.3,3.6-2.3,6.4-3.3,9.1c-3.3,0-6.7,0-10,0
		c-2.8-3.7-5.4-7.5-8.3-11.1c-5-6.2-7.6-13.2-8.5-21.1c-0.6-4.7-2-9.2-3.1-13.8C0,699.8,0,673.2,0,646.5z"/>
	<path d="M150.4,329.1c0.9-7,1.9-14,2.7-21.1c0.1-1.2-0.6-2.7-1.2-3.9c-1.5-3-3.2-6-4.2-9.7c5.8,10.1,14.9,15.5,26.5,18.9
		c-2.2,1.4-3.2,2.1-4.6,3c3.2,0.4,6,0.4,8.5,1.2c8.2,2.6,13.7,7.5,14.4,16.8c0.2,2.9,2.2,5.6,3.4,8.4c0.6-0.1,1.2-0.1,1.8-0.2
		c0.8-3.8,1.6-7.5,2.7-12.4c13.9,10.8,27.5,21.5,41.6,32.6c-0.5-3.1-0.9-5.9-1.3-8.7c-0.3-2.1-0.8-4.2-1-6.4c-0.3-3.8,2.4-5.6,6-4.4
		c6.1,2.2,6.1,2.2,10.5-2.4c0.2,0.2,0.6,0.5,0.6,0.6c-4.9,12.1,5.9,15.6,11.8,21.8c2.6,2.7,5.7,5.1,8.2,7.9c2.2,2.5-0.1,6.5-4.2,6.9
		c-3.6,0.3-7.3-0.2-10.9-0.1c-2.8,0.1-5.6,0.5-9.5,0.8c-1.9-3.4-4.7-8.3-7.5-13.2c-0.5,0.2-1,0.3-1.5,0.5c1,4.5,2.1,9,3,13.6
		c1.4,7.4,2.3,14.9,3.9,22.3c0.5,2.2,2.4,4,3.4,5.5c-5.3-1.1-10.3-2.2-15.3-3c-3.9-0.6-6,2.2-6.8,5.2c-0.4,1.6,1,4.1,2.2,5.6
		c2.9,3.7,6.2,7.1,9.5,10.8c-4.4,4.8-9.7-0.9-15.8,1.2c5.8,16.2,11.6,32.1,17.3,48.1c-0.6,0.3-1.2,0.6-1.8,0.9c-2-3-4.9-5.7-5.9-9
		c-4.4-14.1-12.2-27.1-13.8-42.1c-0.1-0.9-1.2-1.9-2.1-2.5c-24.5-15.1-37.8-38.9-48.2-64.3c-3.7-9-4.6-19.4-5.8-29.2
		c-0.6-4.5,0.7-9.1-1.4-13.7c-2.1-4.5-5-7.1-9.5-8.5c-1.3,7.6-2.5,14.9-3.7,22.2C151.6,329.3,151,329.2,150.4,329.1z M219.3,394.6
		c-0.2-0.1-0.3-0.2-0.5-0.4c-2.6,2.1-5.2,4.2-8.4,6.8c4.5,2.1,1.8,9.9,9.1,10.2c-1.7-4.3-3.1-7.8-4.4-11.2
		C216.5,398.1,217.9,396.3,219.3,394.6z"/>
	<path d="M168.4,137.1c-0.7-4.4,0.5-8,3.3-11.5c2.5-3.2,4.3-7.1,6.4-10.6c2.1-3.4,4.2-6.7,6.4-10c2.6-3.9,4.9-7.9,7.8-11.5
		c4.3-5.3,9-10.4,13.7-15.5c4.6-5,9.3-10,13.9-15c1.1-1.2,2-2.5,3-3.7c0.4,0.4,0.7,0.7,1.1,1.1c-5.4,6.1-10.8,12.2-16.2,18.2
		c2,3.2,6.3,5.6,1.3,9.5c9.2,0.8,14.6-4.7,19.9-9.7c6.6-6.1,13.4-11.7,21.2-16.3c5.8-3.4,10.9-7.8,16.6-11.4
		c1.3-0.9,3.5-0.5,5.2-0.7c-0.6,1.6-0.8,3.4-1.8,4.7c-2.4,3.2-5.2,6-7.8,9c0.4,0.5,0.8,1.1,1.2,1.6c5.5-2.2,11-4.7,16.7-6.6
		c5.7-1.9,11.5-3.3,18.7-5.3c-6,5.2-10.8,9.8-16.1,13.7c-2.5,1.8-4.8,4.1-9.5,1.9c-3.1-1.4-8.6,2.1-12.9,3.6
		c-1.2,0.4-2.1,1.5-2.9,3.5c4.9-0.9,9.9-1.7,15.6-2.7c-1.2,1.4-1.9,2.3-2.7,3c-5.7,5.1-11.4,10.2-17,15.4c-1,1-2.2,2.4-2.3,3.6
		c-0.5,6.2-4.6,9.7-9.2,12.9c-7.4,5.3-10.8,13.5-16.1,20.3c0.3,0.3,0.7,0.6,1,0.9c4.7-4.5,9.4-9,14.1-13.5c0.5,0.4,0.9,0.8,1.4,1.3
		c-7.8,10.2-15.6,20.3-23.4,30.5c0.6,0.5,1.2,0.9,1.8,1.4c4-4.7,8.5-9.1,11.8-14.2c3.5-5.4,7-10.3,14.1-11.7
		c-2.8,2.9-5.7,5.7-8.3,8.8c-1.7,2.1-3,4.7-4.3,7.1c-0.9,1.7-1.1,3.9-2.3,5.2c-3.8,3.9-8.3,7.2-12,11.3c-4,4.5-7.2,9.7-11.1,14.3
		c-3.6,4.2-7.7,8.2-11.8,11.9c-0.7,0.6-3-0.4-4.5-0.8c-1.1-0.3-2.2-0.7-3.9-1.2c1.4-3.1,3-6.7,4.7-10.4c-0.5,0.1-0.9,0.1-1.4,0.2
		c-0.7-3.5-1.4-7-2.1-10.6c-0.2-0.9,0.1-2.5-0.4-2.7c-6.9-3.5-3.4-8.1-1.6-12.6c1.2-2.9,2.2-5.8,2.6-9.1c-1.8,2.9-3.7,5.7-5.3,8.7
		c-2.1,3.9-6.2,3.3-8.6,2.3c-3.2-1.3-4.6-5-3.3-8.9c1.7-5.1,3.5-10.3,5.2-15.4c-0.5-0.2-1-0.5-1.5-0.7c-2.7,5.3-5.5,10.6-8.2,16
		C168.4,137,168.4,137.1,168.4,137.1z M259.2,68.2c-0.2-0.3-0.4-0.6-0.7-0.9c-0.5,0.1-1.1,0-1.4,0.2c-10.9,9.1-24.8,15.3-30.3,29.9
		c-0.3,0.7-0.9,1.6-1.5,1.9c-8.6,4.4-5,13.9-8.8,20.4c8.1-15.1,17-29.2,33.9-37c-2.2-0.8-3.4-1.2-5.2-1.8
		C250.2,76.3,254.7,72.2,259.2,68.2z M202.8,90.2c-0.6,2-1.1,3.5-1.8,5.5c7.4-1,4-7.5,6.9-10.6c-6.3-1.6-6.3-1.6-8.8,7.1
		C200.4,91.4,201.4,90.9,202.8,90.2z M183.9,122.9c3.9-4.2,3.7-5.4-1.1-9.4C178.9,117.4,183.4,119.9,183.9,122.9z M186,111.6
		c0.6,0.5,1.1,1,1.7,1.5c3.2-4,6.5-8,9.7-12.1c-0.4-0.3-0.7-0.6-1.1-0.9C192.9,104,189.5,107.8,186,111.6z"/>
	<path d="M597,70.2l0.2,0.2c-1.8-6.6-3.5-13.2-5.5-19.7c-0.9-2.9-3.8-6,2.6-4.9c1.5,0.3,3.1-0.7,5.5-1.4c-2.6-4.1-5.2-8.1-8.4-13.1
		c7.4,3.2,17.1,19,21.6,33.3c2.8,1.6,5.1,2.9,7.4,4.1c-0.3,0.5-0.5,1-0.8,1.5c-1-0.4-2-0.8-3-1.2c-4.3,5.2-5.6,5.2-10.2-0.2
		c-1-1.2-2.3-2.1-3.5-3.2c-0.3,0.3-0.6,0.6-0.9,0.8c1.2,1.4,2.4,2.8,4.6,5.3C602.4,71.3,599.7,70.7,597,70.2z"/>
	<path d="M294.7,88.6c20.3-19.3,44.7-30.5,71.8-36.7c-2.1,1.3-4.1,2.9-6.4,3.9c-5.8,2.5-11.9,4.4-17.6,7.1c-6.2,3-12.1,6.6-18.1,9.9
		c-8.9,4.8-17.8,9.6-26.8,14.4C296.7,87.7,295.7,88.1,294.7,88.6z"/>
	<path d="M412.7,166.1c30.7-23.3,67.9-39.2,109.3-50.6c-3.2,1.7-6.2,3.8-9.7,5.2c-8.8,3.6-18.1,6.6-26.8,10.4
		c-9.4,4.2-18.4,9-27.6,13.4c-13.5,6.6-27.1,13.1-40.7,19.6C415.8,164.8,414.2,165.4,412.7,166.1z"/>
	<path d="M324,47.8c22.4-16.8,48-25,75.6-28c-2.3,1.1-4.4,2.4-6.8,3.1c-6.1,1.8-12.3,2.9-18.3,5c-6.5,2.2-12.8,5.2-19.2,7.7
		c-9.4,3.8-18.8,7.5-28.3,11.2C326.1,47.2,325,47.4,324,47.8z"/>
	<path d="M781.4,768.5c-28.1-46.3-49.5-101.7-67-162.9c2.2,4.8,4.7,9.4,6.6,14.5c4.9,13.1,9.3,26.9,14.4,39.8
		c5.6,14.1,11.7,27.4,17.6,41.2c8.6,20.2,17.2,40.5,25.7,60.7C779.7,763.9,780.5,766.2,781.4,768.5z"/>
	<path d="M109.7,686c17.8,25.1,27.2,54.3,31.5,86c-1.2-2.6-2.6-5-3.5-7.7c-2.1-6.9-3.5-14.1-5.8-20.9c-2.5-7.4-5.7-14.5-8.6-21.8
		c-4.2-10.7-8.3-21.4-12.5-32.1C110.5,688.4,110.1,687.2,109.7,686z"/>
	<path d="M764.2,770c-12.2-22.1-15.5-45-13.4-68.4c0.6,2.1,1.6,4.2,1.8,6.3c0.6,5.4,0.6,10.8,1.5,16.1c1,5.8,2.7,11.6,4,17.5
		c1.9,8.6,3.8,17.1,5.7,25.7C764,768.2,764.1,769.1,764.2,770z"/>
	<path d="M167.7,303.3c1,0.3,2.1,0.4,3,0.9c9.7,4.6,19.3,9.3,28.9,14c4.7,2.3,9.6,4.6,14,7.5c1.5,1,2,3.6,2.3,6
		c-17.6-7.3-35-14.1-48.8-27.2C167.3,304.1,167.5,303.7,167.7,303.3z"/>
	<path d="M330.6,32.6c-11.7,12.5-28.5,12.5-42.6,18.6c3.4-3.6,6.9-7.2,10.3-10.8c0.4-0.5,1.2-1,1.7-0.9c9.4,1.3,17.1-4.3,25.7-6.1
		C327.4,33.1,329,32.9,330.6,32.6z"/>
	<path d="M157.5,497.6c0.4-1.3,0.8-2.7,1.2-4.1c4,0.9,8,1.1,11.2,2.8c2.3,1.2,3.8,4.3,5.1,6.9c0.2,0.4-2.8,2.5-4.4,3.6
		c-1.6,1.1-3.4,1.9-5.7,3.2c-0.6-2.5-0.8-4.9-1.7-7c-1-2.2-2.7-4-4.1-6C158.6,497.2,158,497.4,157.5,497.6z"/>
	<path d="M606.9,570.3c1.4,0.9,2.9,1.5,3.3,2.5c0.3,0.7-0.8,2.6-1.7,3c-4.1,1.8-8.2,3.9-12.5,4.6c-6.2,1.1-6.4,0.7-5.7,7.4
		c0.1,0.7-0.1,1.5-1.4,2.6c-0.5-1.5-1.6-3.1-1.5-4.6c0.3-4.2-2-3.8-4.8-3.2c-1.8,0.4-3.7,0.6-5.8-0.2c1.1-0.7,2.2-1.3,3.3-2
		c-2.8-2.1-5.4-4-7.9-6c0.3-0.6,0.6-1.2,1-1.8c5.4,4,11.2,6.5,17.9,6.6C594.8,579.1,606.5,573.9,606.9,570.3z"/>
	<path d="M272.2,507.1c11.7,0.9,22.6,3.9,31.2-6.8c-1.1,6.6-2.3,7.7-10.4,10.4c-3.1,1-6.5,3.4-9.2,2.8
		C280,512.8,276.7,509.8,272.2,507.1z"/>
	<path d="M229.5,343.8c-3.5-3.2-7.3-6.2-10.4-9.7c-0.9-1,0.1-3.7,0.9-5.7C225.7,332.2,230.1,336.2,229.5,343.8z"/>
	<path d="M669.8,166.5c1.8,4.4,3.3,7.5,4.4,10.7c0.3,0.9-0.3,3-0.9,3.2c-1.4,0.5-3.3,0.6-4.6,0c-1.8-0.9-3.2-2.7-4.7-4.1
		C665.8,173.3,667.6,170.3,669.8,166.5z"/>
	<path d="M292.7,33.8c-2.3,6.8-10.4,12.6-17.9,12.5C279.3,38.9,287.8,38.8,292.7,33.8z"/>
	<path d="M220.2,503.7c3.3,6.7,2.6,8.8-5.3,12.6c1.2-4.6,2.3-8.8,3.4-13C219,503.4,219.6,503.6,220.2,503.7z"/>
	<path d="M534,2c-5.4,2.1-10.8,4.2-16.3,6.3c-0.3-0.6-0.5-1.2-0.8-1.9c5.4-2.1,10.9-4.3,16.3-6.4C533.5,0.7,533.8,1.3,534,2z"/>
	<path d="M142.7,284c-2.9-4.9-5.7-9.8-8.6-14.7c0.5-0.3,1-0.6,1.5-0.9c3,4.8,5.9,9.7,8.9,14.5C143.9,283.2,143.3,283.6,142.7,284z"
		/>
	<path d="M525.4,555.8c-0.9-2.1-1.1-4,2-2.7c1.7,0.7,3.4,2.2,4.6,3.7c1.8,2.2,3.2,4.8,5,7.5c-3.1,1.8-3.6-0.9-4.6-2.7
		c-1.6-2.9-2.4-6.8-7.2-5.9C525.2,555.7,525.4,555.8,525.4,555.8z"/>
	<path d="M537.8,576.8c-1.9,3.2-3.6,6-5.3,8.8c-0.2,0-0.4-0.1-0.6-0.1c0.7-3.8,1.4-7.6,2.2-11.6
		C535.6,575.1,536.9,576.1,537.8,576.8z"/>
	<path d="M246.5,39.7c-4.6,4.3-9.1,8.6-13.7,12.9c-0.2-0.2-0.4-0.4-0.6-0.7c4.5-4.3,9-8.7,13.5-13C246,39.1,246.2,39.4,246.5,39.7z"
		/>
	<path d="M614.3,60.7c-1.4-4-2.8-8-4.2-12c0.5-0.2,1-0.4,1.5-0.6c1.5,4,2.9,7.9,4.4,11.9C615.5,60.3,614.9,60.5,614.3,60.7z"/>
	<path d="M248.6,193.4c-1.9-3.6-3.8-7.1-5.7-10.8C245.8,182.4,247,184.4,248.6,193.4z"/>
	<path d="M612.2,336c2.1,2.1,4.2,4.1,6.3,6.2c-0.6,0.6-1.1,1.1-1.7,1.7c-1.9-2.3-3.7-4.5-5.6-6.8C611.6,336.7,611.9,336.4,612.2,336
		z"/>
	<path d="M636.2,158.6c-2.2-0.1-4.4-0.2-7.4-0.4c2.9-3.8,5.1-4.6,7.4-1.6C636.2,157.2,636.2,157.9,636.2,158.6z"/>
	<path d="M171.7,458.6c3.1-0.8,5-1.2,7.2-1.8c0.2,1.4,0.4,2.8,0.8,5.2C176.8,460.9,174.7,460,171.7,458.6z"/>
	<path d="M555.1,220.3c-3.8,0.8-3.1-1.8-2.5-3.7c0.7-2.4,1.9-4.8,3.4-8.3c-0.4,4.8-0.7,8.5-1,12.2
		C555,220.4,555.1,220.3,555.1,220.3z"/>
	<path d="M257.5,98.6c2.9-2.5,5.8-5,8.6-7.5c0.3,0.3,0.5,0.6,0.8,0.9c-2.8,2.6-5.7,5.3-8.5,7.9C258.1,99.5,257.8,99.1,257.5,98.6z"
		/>
	<path class="st0" d="M358.4,633c4.8,5.9,5.2,11.9,1.3,18.6c-1.4,2.4-1.5,5.7-1.4,8.6c0.2,3.6,0,6.7-2.6,9.6c-0.9,1,0.5,3.7,0,5.4
		c-1.2,4-3,7.8-4.8,12.4c3.8,4.2,10.2,3.4,16.6,4.4c-0.6,1.7-1.1,3-2.1,5.4c-11.1-5-21.8-9.9-31.9-14.5c1.4-3.4,2.4-5.6,3.5-8.2
		c-4.5-3.8-5.1-8.1-2.2-13.8c1.2-2.5,1.3-5.5,1.9-8.4c1.2,0.3,1.7,0.3,2.1,0.5c1.6,0.9,3.1,1.9,4.6,2.8c0.7-1.8,1.5-3.5,2.1-5.3
		c0.5-1.5,0.7-3,1.1-5.1c-1.7-0.5-3.8-1.1-6.5-1.8c0.8-2.3,1.6-4.5,2.3-6.6c-5.5-3.5-14.2-19-13-23.3c-1.1-0.5-3-0.7-3.3-1.4
		c-1.1-3-2.6-5.3-5.9-6.1c-0.6-0.2-1.2-2.4-0.9-3.4c0.3-0.9,1.9-2,2.9-2c1.3,0,2.8,0.7,3.7,1.6c0.7,0.7,0.5,2.1,0.7,3.4
		c3.9,0.6,7.2,1.7,5.3,7c4.2,1,6.4,3.2,4.8,6.4c3.6,5.1,6.7,9.4,10,14.1c2.4-2.3,3.2-4,1.6-7.2c-2.7-5.5,0.1-12.8,5.5-15.4
		c0.8-0.4,3,0.3,3.5,1.2c2.7,4.5,4.9,4.7,9.5,1.9c8.5-5.3,17.3-10.2,25.9-15.4c1.3-0.8,2-2.6,3.3-3.4c1.1-0.7,2.8-1,4-0.8
		c0.7,0.1,1.9,2.1,1.6,2.6c-0.7,1.3-2,3.1-3.2,3.3c-2.4,0.2-3,1.5-4.4,3.1c-2.5,2.8-6.1,4.6-9.4,6.5c-3.2,1.8-6.8,2.7-9.8,4.6
		c-6.5,4.3-12.1,9.4-14.4,17.2c-0.2,0.7-1.4,1.1-2.1,1.7c-2.6-3.5-3.9-3.1-8,3.3C353.8,635,356.1,634,358.4,633z M358.1,623.3
		c0.5-0.5,1.1-0.9,1.6-1.4c-1.3-2-2.7-4-4-6.1c-1.1,1.5-3.2,2.9-3.3,4.5C352.3,624.9,355.9,622.9,358.1,623.3z"/>
	<path class="st0" d="M135.8,340.2c-2.7-4.3-5.4-8.6-8.4-13.4c7.9,0.2,7.8,0.2,8.5,7c0.2,1.9,1,3.7,1.4,5.6
		C136.8,339.7,136.3,339.9,135.8,340.2z"/>
	<path class="st0" d="M312.7,595.4c0.9-0.1,2.1-0.7,2.7-0.3c1.5,0.8,2.9,2.1,4.3,3.1c-1.2,1.1-2.9,3.4-3.5,3.2c-1.6-0.7-2.9-2.4-4-4
		c-0.3-0.4,0.4-1.4,0.7-2.2C312.8,595.2,312.7,595.4,312.7,595.4z"/>
	<path class="st0" d="M402.7,596.1c-0.5-1.4-1.9-3.2-1.4-4.1c0.9-1.7,2.7-2.9,4.3-4c0.3-0.2,2.8,2.1,2.6,2.6c-0.6,1.6-2,2.8-3.1,4.2
		C404.3,595.3,403.5,595.7,402.7,596.1z"/>
	<path class="st0" d="M312.7,595.4l0.2-0.2c-0.8,0.1-1.9,0.6-2.4,0.3c-1.5-1.1-2.8-2.5-4.1-3.7c1.5-0.6,2.9-1.8,4.4-1.8
		c2.9-0.1,2.9,1.9,2.3,4.1C313,594.5,312.8,594.9,312.7,595.4z"/>
	<path class="st0" d="M299.8,582.5c1.5,0.4,3.2,0.5,4.6,1.2c1.1,0.6,1.9,1.8,2.8,2.8c-0.9,0.8-1.9,2.4-2.7,2.3
		c-1.4-0.1-3.1-1-3.9-2.2c-0.8-1.1-0.5-2.8-0.7-4.3L299.8,582.5z"/>
	<path class="st0" d="M300,582.4c-0.4,0.2-1.1,0.7-1.3,0.5c-1.5-1-3-2.1-4.2-3.4c-0.3-0.3,0.6-2.4,0.9-2.4c1.7,0.2,3.6,0.3,4.9,1.3
		c0.6,0.4-0.2,2.7-0.4,4.1C299.8,582.5,300,582.4,300,582.4z"/>
	<path class="st0" d="M407.5,585.3c1.9-0.7,3.9-1.5,5.8-2.2c0.4,1.3,0.8,2.6,1.2,3.9c-2,0.5-4.1,1-6.1,1.4
		C408.1,587.4,407.8,586.4,407.5,585.3z"/>
	<path class="st0" d="M296.4,574c-2,1.2-3.5,2.5-4,2.2c-1.6-1.1-2.9-2.6-4.1-4.1c-0.1-0.2,1.6-2.3,1.8-2.2
		C292,570.9,293.7,572.2,296.4,574z"/>
	<path class="st0" d="M283.7,563.5c1.8,1,3.7,1.9,5.4,3.1c0.2,0.1-0.1,1.7-0.5,2c-0.7,0.5-2,0.9-2.7,0.6c-2.6-1.2-4-3-2-5.9
		C283.8,563.3,283.7,563.5,283.7,563.5z"/>
	<path class="st0" d="M283.7,563.5l0.2-0.2c-3-0.3-6.3-0.6-6-4.8c0.1-0.8,2-2.4,2.4-2.3C283.1,557.8,284.4,560.2,283.7,563.5z"/>
	<path class="st0" d="M425.7,568.9c1.2,2,2.4,3.4,2.1,3.8c-0.9,1.2-2.2,2.4-3.6,3c-0.6,0.2-1.8-1.2-2.7-1.9
		C422.7,572.4,423.8,571.1,425.7,568.9z"/>
	<path class="st0" d="M423.5,579.3c-2.6,1.6-3.8,2.8-5.1,3c-0.8,0.1-1.9-1.4-2.8-2.1c1-0.9,1.8-2.4,2.9-2.7S420.9,578.3,423.5,579.3
		z"/>
	<path class="st0" d="M430,569.8c-0.9-1-1.8-1.9-2.6-2.9c1.1-0.9,2.1-2.4,3.2-2.4s2.8,1.4,3,2.5c0.2,1.2-0.9,2.7-1.4,4.1
		C431.5,570.7,430.8,570.2,430,569.8z"/>
	<path class="st0" d="M219.3,394.6c-1.4,1.8-2.7,3.6-4.2,5.4c1.3,3.3,2.7,6.8,4.4,11.2c-7.3-0.3-4.6-8.1-9.1-10.2
		c3.2-2.6,5.8-4.7,8.4-6.8C218.9,394.3,219.1,394.4,219.3,394.6z"/>
	<path d="M444.1,379.5c-2.1,1.3-3.3,2-4.8,3c-1.1-1.4-2-2.7-3.1-4.1c-0.6,0.2-1.3,0.7-1.7,0.5c-1.7-0.7-3.4-1.7-5-2.6
		c1.1-1.1,2.1-2.4,3.4-3.2c0.9-0.5,2.4-0.7,3.4-0.3c7.2,2.7,14.6,5.3,21.5,8.5c1.6,0.7,2.2,3.9,2.9,6c0.7,2.5,1,5.2,1.4,8.1
		c-1.1,0.7-2.4,1.3-3.5,2.3c-4.5,3.9-9.3,2.5-10.8-3.4C446.5,389.6,445.4,384.8,444.1,379.5z"/>
	<path d="M309.6,559.5c-1.9-0.3-3.8-0.5-6.4-0.9c1.4-1.9,2.3-3.1,3.5-4.6c1.3,1.5,2.4,2.8,3.5,4
		C310.1,558.4,309.8,558.9,309.6,559.5z"/>
	<path d="M358.1,623.3c-2.2-0.4-5.8,1.6-5.6-3c0.1-1.5,2.1-3,3.3-4.5c1.3,2,2.7,4,4,6.1C359.2,622.4,358.7,622.8,358.1,623.3z"/>
	<path d="M358.4,633c-2.3,1-4.6,2-8.1,3.5c4-6.4,5.4-6.8,8-3.3C358.3,633.1,358.4,633,358.4,633z"/>
	<path d="M139.9,297.2c-0.6,0-1.2,0.1-1.7,0.3c-0.2-0.8-0.7-1.6-1.5-2.3c-3.8-3.3-7.4-6.7-11.1-10.1c-3-2.8-6.4-5.5-8.4-9.1
		c-3.2-5.6-11.8-0.6-8.6,5c0.4,0.7,0.8,1.3,1.3,2c-1.5,4.9,1.5,10.2,3.3,14.6c1.9,4.4,3.9,8.7,6.2,13c0,0.4,0,0.8,0.1,1.3
		c0.5,2.6,0.7,5.3,0.6,8c-0.1,2.5,2,4.6,4.3,4.9c1.3,1.6,3,2.9,4.3,4.9c1.1,1.6,1.1,3.8,1.6,5.6c0.7,2.2,1.7,3.9,3.1,5.7
		c3.1,3.8,10.1-0.3,8.4-4.9c-0.2-0.6-0.5-1.2-0.7-1.8c-0.3-0.8-0.8-1.5-1.3-2c-0.2-0.9-0.3-1.9-0.5-2.7c-0.4-1.7-1-3.5-1.9-5
		c-0.6-1-1.7-2-2.8-3c1.7-1.8,1.8-4.9,0.4-6.8c1.6-0.7,2.8-2.1,2.7-3.9c2.9,0,4.5-2.1,4.7-4.3C146.2,304.5,145.4,297.2,139.9,297.2z
		"/>
	<path class="st1" d="M104.2,263.1c0,0,1.2-11.5,4.9-6.6c3.7,5,22.2,26.9,22.2,26.9l2.2,10.9L107,271.8L104.2,263.1z"/>
	<g>
		<path d="M126.5,267.5c0,0,0.2,0.1,0.6,0.3c0.4,0.2,0.9,0.5,1.5,0.9s1.4,0.8,2.3,1.4c0.8,0.6,1.8,1.2,2.7,2c1.9,1.5,4,3.4,6.1,5.5
			c0.5,0.5,1,1.1,1.5,1.7s1,1.1,1.5,1.7c1,1.2,2,2.4,2.9,3.7c0.9,1.3,1.8,2.6,2.7,3.9c0.4,0.6,0.8,1.3,1.2,2s0.8,1.3,1.1,2
			c1.5,2.6,2.7,5.1,3.6,7.4c0.4,1.1,0.8,2.2,1.1,3.2s0.5,1.8,0.7,2.6c0.2,0.7,0.3,1.3,0.4,1.7c0.1,0.4,0.1,0.6,0.1,0.6l-0.5,0.4
			c0,0-0.5-0.6-1.3-1.7s-2.1-2.6-3.5-4.5c-2.9-3.8-6.7-8.8-10.5-13.8c-3.7-5.1-7.4-10.2-10.2-14c-1.4-1.9-2.5-3.5-3.3-4.6
			s-1.3-1.8-1.3-1.8L126.5,267.5z"/>
	</g>
	<path d="M253.3,415.2c0.1-4.3-0.8-8.7-1.9-12.8c-2-7.5-4.3-14.9-6.5-22.3c-1.8-6.2-11.4-3.5-9.6,2.7c1.9,6.5,4,12.9,5.8,19.5
		c-0.2,0-0.3-0.1-0.5-0.1c-1.4,0-2.5,0.5-3.3,1.3c-0.3,0.3-0.6,0.6-0.8,0.9c-0.6-0.3-1.3-0.5-2-0.4c-2.2,0.1-4.1,1.5-4.7,3.5
		c0-7.8-6.5-13.3-12.5-17.4c-4.3-2.9-8.3,2-7.1,6c-1.1,0.8-1.8,2-1.7,3.8c0.4,7.6,5.1,13.9,12.3,16.3c2.9,1,5-0.7,5.8-3
		c1.3-0.5,2.4-1.6,2.8-3.2c0,1.3,0,2.6,0,3.8c0,1.1,0.4,2.2,1.1,3.1c0.1,1.2,0.5,2.1,1.1,2.9c-0.2,0-0.5,0-0.7,0
		c-4.8-0.1-7.1,7.1-2.5,9.3c5.3,2.6,11.1,3.4,16.8,1.3c1.5-0.5,2.7-1.4,3.8-2.5c1.1-0.8,2.1-1.8,2.9-3.1
		C253.8,421.6,254,418.3,253.3,415.2z"/>
	<path class="st1" d="M200.5,330.9c0,0-18.5-13.8-26.3-13.6c-7.7,0.2,26.3,33.6,26.3,33.6V330.9z"/>
	<path class="st2" d="M467.3,49.3c0,0-87.2-81.7-221.2-9.5c0,0-24.4,19-39.9,39.7"/>
	<path d="M334.2,90.8c20.6-18.9,45.2-29.6,72.4-35.4c-2.1,1.3-4.2,2.9-6.5,3.8c-5.8,2.4-12,4.1-17.7,6.7c-6.3,2.8-12.2,6.4-18.3,9.6
		c-9,4.7-18,9.3-27,13.9C336.2,90,335.2,90.4,334.2,90.8z"/>
	<path d="M362.8,100.2c22.4-16.8,48-25,75.6-28c-2.3,1.1-4.4,2.4-6.8,3.1c-6.1,1.8-12.3,2.9-18.3,5c-6.5,2.2-12.8,5.2-19.2,7.7
		c-9.4,3.8-18.8,7.5-28.3,11.2C364.9,99.5,363.9,99.8,362.8,100.2z"/>
	<path d="M356.1,114.2c22.4-16.8,48-25,75.6-28c-2.3,1.1-4.4,2.4-6.8,3.1c-6.1,1.8-12.3,2.9-18.3,5c-6.5,2.2-12.8,5.2-19.2,7.7
		c-9.4,3.8-18.8,7.5-28.3,11.2C358.2,113.5,357.2,113.8,356.1,114.2z"/>
	<path d="M366.9,117.6c22.4-16.8,48-25,75.6-28c-2.3,1.1-4.4,2.4-6.8,3.1c-6.1,1.8-12.3,2.9-18.3,5c-6.5,2.2-12.8,5.2-19.2,7.7
		c-9.4,3.8-18.8,7.5-28.3,11.2C369,117,367.9,117.3,366.9,117.6z"/>
	<path d="M381.7,123.7c22.4-16.8,48-25,75.6-28c-2.3,1.1-4.4,2.4-6.8,3.1c-6.1,1.8-12.3,2.9-18.3,5c-6.5,2.2-12.8,5.2-19.2,7.7
		c-9.4,3.8-18.8,7.5-28.3,11.2C383.8,123.1,382.8,123.4,381.7,123.7z"/>
	<path d="M395,146.2c22.4-16.8,48-25,75.6-28c-2.3,1.1-4.4,2.4-6.8,3.1c-6.1,1.8-12.3,2.9-18.3,5c-6.5,2.2-12.8,5.2-19.2,7.7
		c-9.4,3.8-18.8,7.5-28.3,11.2C397.1,145.6,396.1,145.9,395,146.2z"/>
	<path d="M411.6,146.2c22.4-16.8,48-25,75.6-28c-2.3,1.1-4.4,2.4-6.8,3.1c-6.1,1.8-12.3,2.9-18.3,5c-6.5,2.2-12.8,5.2-19.2,7.7
		c-9.4,3.8-18.8,7.5-28.3,11.2C413.7,145.6,412.7,145.9,411.6,146.2z"/>
	<path d="M432.8,168.8c22.4-16.8,48-25,75.6-28c-2.3,1.1-4.4,2.4-6.8,3.1c-6.1,1.8-12.3,2.9-18.3,5c-6.5,2.2-12.8,5.2-19.2,7.7
		c-9.4,3.8-18.8,7.5-28.3,11.2C434.9,168.2,433.9,168.4,432.8,168.8z"/>
	<path d="M454.1,180.5c22.4-16.8,48-25,75.6-28c-2.3,1.1-4.4,2.4-6.8,3.1c-6.1,1.8-12.3,2.9-18.3,5c-6.5,2.2-12.8,5.2-19.2,7.7
		c-9.4,3.8-18.8,7.5-28.3,11.2C456.2,179.9,455.2,180.2,454.1,180.5z"/>
</g>
</svg>
